<?xml version="1.0" standalone="no"?>
<!DOCTYPE svg PUBLIC "-//W3C//DTD SVG 20010904//EN"
 "http://www.w3.org/TR/2001/REC-SVG-20010904/DTD/svg10.dtd">
<svg version="1.0" xmlns="http://www.w3.org/2000/svg"
 width="2048.000000pt" height="2048.000000pt" viewBox="0 0 2048.000000 2048.000000"
 preserveAspectRatio="xMidYMid meet">

<g transform="translate(0.000000,2048.000000) scale(0.100000,-0.100000)"
fill="#dd0031" stroke="none">
<path d="M13815 15469 c-154 -60 -368 -142 -475 -183 -107 -41 -325 -125 -485
-186 -159 -62 -335 -129 -390 -150 -374 -142 -1131 -430 -1285 -490 -384 -149
-707 -273 -757 -293 -29 -11 -53 -23 -53 -27 0 -5 109 -81 243 -171 391 -262
1010 -690 1064 -735 l22 -19 -169 -660 c-93 -363 -172 -677 -175 -697 -4 -21
-9 -38 -12 -38 -4 0 -3227 3232 -3567 3578 -88 89 -162 159 -165 157 -6 -6
-215 -1266 -391 -2355 -39 -239 -108 -669 -155 -955 -123 -755 -190 -1173
-225 -1398 -17 -109 -55 -347 -85 -530 -30 -183 -63 -393 -75 -467 -11 -74
-47 -299 -80 -500 -50 -307 -158 -1000 -241 -1539 -11 -73 -18 -135 -16 -137
4 -4 561 263 1272 611 143 70 346 169 450 220 1293 631 1792 882 1778 895 -4
5 -129 82 -278 173 -148 90 -358 218 -465 284 -107 66 -276 168 -375 228 -99
60 -181 109 -183 111 -4 2 46 292 149 864 44 250 91 512 102 583 12 70 24 127
28 127 9 0 760 -774 1479 -1525 179 -187 424 -443 546 -570 121 -126 496 -520
833 -875 337 -355 615 -646 620 -648 7 -2 240 920 366 1448 50 209 121 502
300 1240 132 542 221 912 309 1285 52 220 129 537 170 705 80 325 237 974 366
1515 43 182 128 532 189 779 61 247 111 450 111 452 0 7 -15 2 -295 -107z
m-152 -501 c-19 -79 -57 -237 -84 -353 -27 -115 -85 -356 -129 -535 -43 -179
-113 -469 -156 -645 -42 -176 -127 -529 -189 -785 -62 -256 -137 -564 -165
-685 -29 -121 -126 -521 -216 -890 -89 -368 -199 -821 -244 -1005 -212 -877
-323 -1326 -329 -1332 -3 -3 -62 53 -131 125 -166 176 -659 693 -950 997 -129
135 -437 457 -684 715 -248 259 -612 637 -811 840 -198 204 -493 506 -655 673
l-295 303 -27 -153 c-15 -84 -68 -389 -118 -678 -98 -567 -141 -803 -219
-1229 -28 -151 -50 -275 -49 -276 2 -1 156 -94 343 -207 686 -414 698 -421
678 -437 -35 -26 -1816 -903 -2390 -1177 -84 -39 -133 -58 -133 -50 0 7 5 38
10 67 10 51 82 507 220 1394 56 359 101 638 239 1495 202 1243 263 1615 347
2130 52 316 133 816 180 1110 47 294 88 541 90 548 3 10 15 5 43 -17 21 -17
855 -849 1853 -1850 l1815 -1819 58 241 c32 133 114 465 182 737 69 272 156
619 193 770 37 151 72 292 78 313 10 35 9 38 -21 61 -39 28 -588 416 -825 581
-94 66 -171 123 -172 126 0 3 51 25 113 49 61 23 256 99 432 167 316 123 659
255 930 358 224 85 992 382 1130 436 39 15 75 28 81 28 7 1 -1 -51 -23 -141z"/>
<path d="M9570 6230 l0 -740 115 0 114 0 3 338 c3 327 4 338 26 387 46 101
105 137 232 143 79 4 89 2 140 -25 46 -24 60 -38 85 -88 l30 -59 3 -348 4
-348 109 0 109 0 0 368 c0 279 -4 379 -14 419 -32 120 -90 193 -195 242 -51
24 -67 26 -181 26 -117 0 -129 -2 -188 -29 -44 -20 -78 -46 -113 -85 l-49 -55
0 297 0 297 -115 0 -115 0 0 -740z"/>
<path d="M13310 6230 l0 -740 110 0 110 0 0 740 0 740 -110 0 -110 0 0 -740z"/>
<path d="M6998 6893 l-88 -4 0 -699 0 -700 110 0 110 0 2 507 3 507 144 -195
c186 -250 472 -642 541 -741 l54 -78 103 0 103 0 -2 703 -3 702 -110 0 -110 0
-2 -490 c-1 -269 -3 -494 -3 -498 0 -10 -96 117 -462 613 -270 365 -283 381
-295 378 -4 -1 -47 -4 -95 -5z"/>
<path d="M8658 6534 c-37 -8 -88 -23 -113 -34 -56 -24 -135 -77 -135 -91 0 -7
37 -71 85 -147 1 -1 29 14 61 33 177 107 407 94 469 -25 8 -16 16 -58 18 -92
l2 -63 -210 -6 c-182 -5 -219 -9 -275 -28 -99 -34 -152 -77 -192 -158 -29 -60
-33 -77 -33 -148 0 -67 4 -89 28 -137 54 -109 154 -166 307 -175 145 -9 250
26 332 109 26 26 49 48 52 48 3 0 6 -29 6 -65 l0 -65 105 0 105 0 0 378 c0
349 -2 383 -19 435 -39 114 -115 188 -226 223 -71 23 -280 28 -367 8z m392
-642 c0 -125 -67 -213 -189 -249 -71 -20 -186 -14 -232 13 -90 52 -92 202 -3
261 44 28 130 41 282 42 l142 1 0 -68z"/>
<path d="M12390 6531 c-173 -56 -289 -182 -337 -364 -19 -75 -21 -240 -3 -317
66 -283 341 -441 653 -375 98 21 169 56 233 117 86 81 86 79 -3 133 l-77 46
-40 -40 c-66 -65 -124 -86 -236 -85 -83 0 -101 3 -146 26 -28 15 -66 44 -84
64 -35 41 -76 123 -82 164 l-3 25 402 3 402 2 -5 98 c-10 177 -49 283 -140
381 -57 61 -143 111 -224 130 -73 17 -247 13 -310 -8z m274 -173 c26 -8 60
-31 93 -64 41 -41 55 -64 72 -119 12 -37 21 -73 21 -81 0 -12 -49 -14 -295
-14 l-296 0 6 38 c11 61 63 159 103 192 20 16 54 36 77 44 50 18 164 20 219 4z"/>
<path d="M10832 6138 c3 -378 4 -395 25 -447 45 -109 103 -167 208 -207 69
-26 229 -26 303 -1 62 22 137 79 172 130 14 20 28 37 33 37 4 0 7 -36 7 -80
l0 -80 112 0 111 0 -6 98 c-4 53 -7 287 -7 520 l0 422 -109 0 -110 0 -3 -327
-3 -328 -29 -63 c-51 -110 -123 -155 -246 -155 -90 0 -144 23 -186 79 -46 60
-54 125 -54 477 l0 317 -111 0 -110 0 3 -392z"/>
</g>
</svg>
